<svg width="41" height="41" viewBox="0 0 41 41" fill="none" xmlns="http://www.w3.org/2000/svg">
<rect width="41" height="41" rx="20.5" fill="#EADDFF"/>
<path fill-rule="evenodd" clip-rule="evenodd" d="M26.6502 16.4C26.6502 19.7966 23.8968 22.55 20.5002 22.55C17.1037 22.55 14.3503 19.7966 14.3503 16.4C14.3503 13.0034 17.1037 10.25 20.5002 10.25C23.8968 10.25 26.6502 13.0034 26.6502 16.4ZM24.6002 16.4C24.6002 18.6644 22.7646 20.5 20.5002 20.5C18.2359 20.5 16.4003 18.6644 16.4003 16.4C16.4003 14.1356 18.2359 12.3 20.5002 12.3C22.7646 12.3 24.6002 14.1356 24.6002 16.4Z" fill="#4F378A"/>
<path d="M20.5003 25.625C13.864 25.625 8.20976 29.5491 6.05591 35.0468C6.5806 35.5679 7.13333 36.0607 7.71162 36.5229C9.31548 31.4754 14.3469 27.675 20.5003 27.675C26.6536 27.675 31.685 31.4754 33.2889 36.5229C33.8672 36.0607 34.4199 35.5679 34.9446 35.0469C32.7908 29.5491 27.1365 25.625 20.5003 25.625Z" fill="#4F378A"/>
</svg>
